<?xml version="1.0" standalone="no"?><!DOCTYPE svg PUBLIC "-//W3C//DTD SVG 1.1//EN" "http://www.w3.org/Graphics/SVG/1.1/DTD/svg11.dtd"><svg t="1648019018920" class="icon" viewBox="0 0 1024 1024" version="1.1" xmlns="http://www.w3.org/2000/svg" p-id="1157" xmlns:xlink="http://www.w3.org/1999/xlink" width="200" height="200"><defs><style type="text/css">@font-face { font-family: feedback-iconfont; src: url("//at.alicdn.com/t/font_1031158_u69w8yhxdu.woff2?t=1630033759944") format("woff2"), url("//at.alicdn.com/t/font_1031158_u69w8yhxdu.woff?t=1630033759944") format("woff"), url("//at.alicdn.com/t/font_1031158_u69w8yhxdu.ttf?t=1630033759944") format("truetype"); }
</style></defs><path d="M768 896H256c-52.94 0-96-43.06-96-96v-32c0-123.52 100.48-224 224-224h256c123.52 0 224 100.48 224 224v32c0 52.94-43.06 96-96 96zM384 608c-88.22 0-160 71.78-160 160v32c0 17.64 14.36 32 32 32h512c17.64 0 32-14.36 32-32v-32c0-88.22-71.78-160-160-160H384zM512 512c-105.88 0-192-86.13-192-192s86.13-192 192-192 192 86.13 192 192-86.12 192-192 192z m0-320c-70.58 0-128 57.42-128 128s57.42 128 128 128 128-57.42 128-128-57.42-128-128-128z" p-id="1158"></path></svg>